<?xml version="1.0" standalone="no"?>
<!DOCTYPE svg PUBLIC "-//W3C//DTD SVG 20010904//EN"
 "http://www.w3.org/TR/2001/REC-SVG-20010904/DTD/svg10.dtd">
<svg version="1.0" xmlns="http://www.w3.org/2000/svg"
 width="2000.000000pt" height="819.000000pt" viewBox="0 0 2000.000000 819.000000"
 preserveAspectRatio="xMidYMid meet">

<g transform="translate(0.000000,819.000000) scale(0.100000,-0.100000)"
fill="#000000" stroke="none">
<path d="M4870 4460 l0 -1060 199 0 199 0 5 468 c5 499 6 511 58 619 34 72
114 146 178 168 118 39 245 -1 303 -95 59 -97 61 -118 66 -662 l3 -498 200 0
200 0 -3 563 c-4 536 -5 566 -25 639 -66 237 -208 353 -448 365 -121 7 -191
-6 -284 -53 -82 -41 -171 -130 -216 -217 -17 -31 -32 -57 -35 -57 -3 0 -4 198
-2 440 l2 440 -200 0 -200 0 0 -1060z"/>
<path d="M8040 4455 l0 -1065 198 2 197 3 3 1063 2 1062 -200 0 -200 0 0
-1065z"/>
<path d="M8720 5370 l0 -150 200 0 200 0 0 150 0 150 -200 0 -200 0 0 -150z"/>
<path d="M12080 4460 l0 -1060 199 0 200 0 3 473 c4 507 5 513 60 620 27 54
94 125 143 150 53 29 193 31 241 5 73 -40 121 -113 143 -216 7 -35 11 -218 11
-542 l0 -490 200 0 201 0 -3 583 -3 582 -28 80 c-77 219 -230 324 -472 325
-222 0 -360 -88 -490 -314 -7 -12 -9 126 -7 423 l3 441 -200 0 -201 0 0 -1060z"/>
<path d="M3438 5424 c-102 -15 -249 -62 -327 -105 -307 -163 -471 -479 -471
-904 0 -345 95 -603 292 -791 126 -121 265 -190 458 -226 l106 -20 23 -67 c55
-156 147 -301 236 -371 98 -78 193 -110 350 -117 110 -5 308 13 360 33 12 5
15 31 15 144 l0 138 -137 -2 c-111 -1 -149 3 -196 18 -76 25 -149 90 -188 169
-32 62 -32 87 -1 87 10 0 50 11 88 24 330 112 547 380 609 755 26 151 17 410
-18 542 -86 328 -278 544 -575 645 -178 61 -422 80 -624 48z m356 -329 c210
-44 349 -184 416 -415 27 -92 38 -336 21 -447 -44 -285 -200 -475 -429 -522
-76 -16 -238 -14 -305 4 -289 75 -459 376 -433 766 23 343 181 560 446 614 88
18 200 18 284 0z"/>
<path d="M10080 4405 l0 -1005 215 0 215 0 0 368 1 367 86 65 c47 36 103 77
123 92 l37 28 359 -460 359 -460 249 0 c197 0 246 3 239 13 -6 6 -210 262
-455 567 -244 305 -448 561 -452 568 -6 9 122 142 421 437 l428 424 -246 0
-246 1 -451 -454 -452 -455 0 455 0 454 -215 0 -215 0 0 -1005z"/>
<path d="M6953 4956 c-132 -25 -243 -76 -317 -144 -63 -59 -146 -222 -146
-287 0 -9 42 -14 168 -19 92 -4 184 -9 204 -12 27 -4 39 -2 42 8 37 134 64
173 135 197 52 17 150 13 196 -8 86 -40 116 -101 123 -252 l4 -106 -238 -6
c-194 -5 -255 -9 -321 -26 -259 -64 -383 -217 -383 -471 0 -153 42 -263 133
-347 86 -80 186 -113 337 -113 165 0 279 42 385 142 35 32 78 82 96 110 28 43
34 48 40 32 4 -11 8 -27 8 -36 2 -38 43 -126 73 -157 55 -56 102 -74 210 -79
69 -3 124 0 188 13 l90 17 0 108 0 107 -69 -1 c-56 -1 -73 3 -91 19 -52 46
-54 60 -61 505 -4 292 -10 427 -19 455 -55 174 -180 291 -365 341 -82 22 -326
28 -422 10z m407 -913 c0 -169 -81 -309 -211 -368 -52 -23 -71 -27 -133 -23
-126 6 -175 66 -176 214 0 66 4 89 23 125 47 89 129 115 370 118 l127 1 0 -67z"/>
<path d="M14185 4961 c-147 -24 -277 -85 -355 -167 -55 -58 -115 -173 -126
-240 l-6 -42 168 -6 c93 -4 186 -9 206 -12 34 -5 38 -4 43 23 31 143 92 193
231 193 147 -1 212 -82 222 -277 l5 -103 -174 0 c-272 0 -413 -21 -523 -76
-173 -87 -247 -214 -247 -424 0 -241 106 -390 318 -445 74 -19 232 -19 307 0
131 34 246 117 322 233 l38 56 16 -65 c30 -126 91 -194 193 -220 58 -14 239
-7 312 13 l50 13 3 108 3 109 -53 -6 c-75 -8 -116 9 -142 59 -20 38 -21 60
-27 455 -5 385 -7 420 -26 477 -30 89 -64 142 -132 206 -65 59 -131 95 -226
122 -68 19 -317 29 -400 16z m385 -914 c0 -215 -131 -382 -310 -395 -83 -6
-130 9 -169 53 -68 77 -64 247 8 329 45 51 146 74 339 75 l132 1 0 -63z"/>
<path d="M15993 4956 c-75 -19 -155 -62 -209 -115 -47 -45 -118 -145 -129
-182 -13 -40 -25 -16 -25 49 0 37 -3 104 -7 150 l-6 82 -195 0 -194 0 6 -22
c3 -13 6 -359 6 -770 l0 -748 205 0 205 0 0 463 c0 385 3 473 15 522 22 83 52
142 99 193 57 62 106 85 196 89 67 4 81 2 130 -24 39 -20 64 -42 87 -76 66
-99 73 -160 73 -709 l0 -458 200 0 200 0 0 514 c0 516 -5 622 -37 721 -39 123
-118 227 -211 278 -98 53 -285 73 -409 43z"/>
<path d="M8722 4168 l3 -773 198 -3 197 -2 0 775 0 775 -200 0 -200 0 2 -772z"/>
<path d="M16900 3610 l0 -220 205 0 205 0 0 220 0 220 -205 0 -205 0 0 -220z"/>
</g>
</svg>
