<svg xmlns="http://www.w3.org/2000/svg" version="1.1" xmlns:xlink="http://www.w3.org/1999/xlink" width="2000" height="104" viewBox="0 0 2000 104"><svg xml:space="preserve" width="2000" height="104" data-version="2" data-id="lg_b8GSeWjWsCg4fQhlfa" viewBox="0 0 563 104" x="0" y="0"><rect width="100%" height="100%" fill="transparent"></rect><path fill="#fff" d="M82.085 42.345q0 10.09-3.36 17.99-3.36 7.9-9.64 13.02-6.29 5.13-15.15 6.96 1.83 5.32 5.13 7.68 3.3 2.36 9.27 2.36 3.33 0 6.39-.53l-.11 10.85q-6.66 1.5-13 1.5-8.75 0-14.5-4.89-5.75-4.88-9.24-16.22-10.2-.96-17.4-5.91-7.2-4.94-11.01-13.29-3.81-8.35-3.81-19.52 0-12.14 4.53-20.79 4.54-8.65 13.11-13.24t20.54-4.59q12.04 0 20.58 4.64 8.54 4.65 13.1 13.3 4.57 8.65 4.57 20.68m-16.17 0q0-12.25-5.8-19.2-5.8-6.96-16.28-6.96-10.63 0-16.43 6.9-5.8 6.9-5.8 19.26 0 8.27 2.66 14.31 2.65 6.04 7.62 9.29 4.97 3.25 11.85 3.25 10.63 0 16.41-6.98 5.77-6.98 5.77-19.87"></path><rect width="76.43" height="98.45" x="-38.22" y="-49.23" fill="none" rx="0" ry="0" transform="translate(44.37 53.45)"></rect><path fill="#fff" d="M104.205 34.015h.21q3.07-6.66 7.68-9.67 4.62-3 11.02-3 9.23 0 14.17 5.69 4.95 5.69 4.95 16.65v36.85h-15.04v-32.55q0-7.68-2.58-11.5-2.58-3.81-7.79-3.81-5.48 0-8.83 4.7-3.36 4.7-3.36 12.06v31.1h-15.09V.825h15.09v21.75q0 1.93-.06 3.87-.05 1.93-.13 3.81-.08 1.88-.24 3.76"></path><rect width="52.69" height="79.71" x="-26.34" y="-39.85" fill="none" rx="0" ry="0" transform="translate(116.39 41.18)"></rect><path fill="#fff" d="M165.325 81.605q-8.44 0-13.16-4.59-4.73-4.59-4.73-12.92 0-9.02 5.88-13.7 5.88-4.67 17.05-4.88l12.52-.22v-2.95q0-5.7-1.99-8.46-1.99-2.77-6.5-2.77-4.19 0-6.15 1.91-1.96 1.9-2.44 6.31l-15.74-.75q2.96-17.24 24.98-17.24 11.01 0 16.97 5.42 5.96 5.43 5.96 15.42v21.16q0 4.89 1.1 6.74 1.1 1.85 3.68 1.85 1.72 0 3.33-.32v8.16q-2.79.7-4.78 1.05-1.99.35-4.89.35-5.69 0-8.4-2.79-2.71-2.8-3.25-8.22h-.32q-3.17 5.69-7.95 8.57-4.78 2.87-11.17 2.87m17.56-25.03v-2.95l-7.74.1q-5.31.27-7.46 1.13-2.2.97-3.36 2.9-1.15 1.94-1.15 5.16 0 4.13 1.9 6.15 1.91 2.01 5.08 2.01 3.54 0 6.5-1.93 2.9-1.93 4.56-5.35 1.67-3.41 1.67-7.22"></path><rect width="58.65" height="60.26" x="-29.32" y="-30.13" fill="none" rx="0" ry="0" transform="translate(177.26 51.98)"></rect><path fill="#fff" d="M208.225.825h15.1v79.71h-15.1z"></path><rect width="15.1" height="79.71" x="-7.55" y="-39.85" fill="none" rx="0" ry="0" transform="translate(216.28 41.18)"></rect><path fill="#fff" d="M233.955.825h15.09v11.12h-15.09zm0 21.59h15.09v58.12h-15.09z"></path><rect width="15.09" height="79.71" x="-7.54" y="-39.85" fill="none" rx="0" ry="0" transform="translate(242 41.18)"></rect><path fill="#fff" d="m310.265 45.775-9.35 7.15v27.61h-15.84V4.855h15.84v34.32l34.11-34.32h18.47l-32.33 32.01 34.97 43.67h-18.69z"></path><rect width="71.06" height="75.68" x="-35.53" y="-37.84" fill="none" rx="0" ry="0" transform="translate(321.1 43.2)"></rect><path fill="#fff" d="M374.655 34.015h.22q3.06-6.66 7.68-9.67 4.62-3 11.01-3 9.24 0 14.18 5.69 4.94 5.69 4.94 16.65v36.85h-15.04v-32.55q0-7.68-2.58-11.5-2.58-3.81-7.79-3.81-5.48 0-8.83 4.7-3.36 4.7-3.36 12.06v31.1h-15.09V.825h15.09v21.75q0 1.93-.05 3.87-.06 1.93-.14 3.81-.08 1.88-.24 3.76"></path><rect width="52.69" height="79.71" x="-26.34" y="-39.85" fill="none" rx="0" ry="0" transform="translate(386.84 41.18)"></rect><path fill="#fff" d="M435.775 81.605q-8.43 0-13.16-4.59t-4.73-12.92q0-9.02 5.88-13.7 5.89-4.67 17.06-4.88l12.51-.22v-2.95q0-5.7-1.99-8.46-1.98-2.77-6.49-2.77-4.19 0-6.15 1.91-1.97 1.9-2.45 6.31l-15.74-.75q2.96-17.24 24.98-17.24 11.01 0 16.97 5.42 5.96 5.43 5.96 15.42v21.16q0 4.89 1.11 6.74 1.1 1.85 3.67 1.85 1.72 0 3.33-.32v8.16q-2.79.7-4.78 1.05-1.98.35-4.88.35-5.7 0-8.41-2.79-2.71-2.8-3.25-8.22h-.32q-3.17 5.69-7.95 8.57-4.78 2.87-11.17 2.87m17.56-25.03v-2.95l-7.73.1q-5.32.27-7.47 1.13-2.2.97-3.36 2.9-1.15 1.94-1.15 5.16 0 4.13 1.91 6.15 1.9 2.01 5.07 2.01 3.55 0 6.5-1.93 2.9-1.93 4.57-5.35 1.66-3.41 1.66-7.22"></path><rect width="58.65" height="60.26" x="-29.32" y="-30.13" fill="none" rx="0" ry="0" transform="translate(447.71 51.98)"></rect><path fill="#fff" d="M493.775 49.375v31.16h-15.09v-45.12q0-4.67-.14-7.66-.13-2.98-.29-5.34h14.39q.11.64.27 3.03.16 2.39.3 4.89.13 2.5.13 3.63h.22q3.06-6.66 7.68-9.67 4.61-3.01 11.01-3.01 9.23 0 14.18 5.7 4.94 5.69 4.94 16.65v36.9h-15.04v-32.61q0-7.68-2.58-11.49-2.58-3.81-7.79-3.81-5.48 0-8.83 4.69-3.36 4.7-3.36 12.06"></path><rect width="53.12" height="59.25" x="-26.56" y="-29.63" fill="none" rx="0" ry="0" transform="translate(505.31 51.41)"></rect><path fill="#fff" d="M540.815 64.145h15.53v16.39h-15.53z"></path><rect width="15.53" height="16.39" x="-7.76" y="-8.2" fill="none" rx="0" ry="0" transform="translate(549.08 72.84)"></rect></svg></svg>